<svg width="24" height="24" viewBox="0 0 24 24" fill="none" xmlns="http://www.w3.org/2000/svg">
    <path fill-rule="evenodd" clip-rule="evenodd"
          d="M0 7.53475C0 4.60636 2.37394 2.23242 5.30233 2.23242H18.6977C21.6261 2.23242 24 4.60636 24 7.53475V18.6975C24 21.626 21.6261 23.9999 18.6977 23.9999H5.30233C2.37394 23.9999 0 21.626 0 18.6975V7.53475ZM5.30233 3.90684C3.29868 3.90684 1.67442 5.5311 1.67442 7.53475V18.6975C1.67442 20.7011 3.29868 22.3254 5.30233 22.3254H18.6977C20.7013 22.3254 22.3256 20.7011 22.3256 18.6975V7.53475C22.3256 5.5311 20.7013 3.90684 18.6977 3.90684H5.30233Z"
          fill="currentColor"/>
    <path d="M8.09312 9.20947H6.97684C6.66859 9.20947 6.4187 9.45936 6.4187 9.76761V10.8839C6.4187 11.1921 6.66859 11.442 6.97684 11.442H8.09312C8.40137 11.442 8.65126 11.1921 8.65126 10.8839V9.76761C8.65126 9.45936 8.40137 9.20947 8.09312 9.20947Z"
          fill="currentColor"/>
    <path d="M12.5582 9.20947H11.4419C11.1337 9.20947 10.8838 9.45936 10.8838 9.76761V10.8839C10.8838 11.1921 11.1337 11.442 11.4419 11.442H12.5582C12.8665 11.442 13.1163 11.1921 13.1163 10.8839V9.76761C13.1163 9.45936 12.8665 9.20947 12.5582 9.20947Z"
          fill="currentColor"/>
    <path d="M17.0233 9.20947H15.907C15.5988 9.20947 15.3489 9.45936 15.3489 9.76761V10.8839C15.3489 11.1921 15.5988 11.442 15.907 11.442H17.0233C17.3315 11.442 17.5814 11.1921 17.5814 10.8839V9.76761C17.5814 9.45936 17.3315 9.20947 17.0233 9.20947Z"
          fill="currentColor"/>
    <path d="M8.09312 12.5581H6.97684C6.66859 12.5581 6.4187 12.808 6.4187 13.1162V14.2325C6.4187 14.5408 6.66859 14.7907 6.97684 14.7907H8.09312C8.40137 14.7907 8.65126 14.5408 8.65126 14.2325V13.1162C8.65126 12.808 8.40137 12.5581 8.09312 12.5581Z"
          fill="currentColor"/>
    <path d="M8.09312 15.9067H6.97684C6.66859 15.9067 6.4187 16.1566 6.4187 16.4649V17.5812C6.4187 17.8894 6.66859 18.1393 6.97684 18.1393H8.09312C8.40137 18.1393 8.65126 17.8894 8.65126 17.5812V16.4649C8.65126 16.1566 8.40137 15.9067 8.09312 15.9067Z"
          fill="currentColor"/>
    <path d="M12.5582 12.5581H11.4419C11.1337 12.5581 10.8838 12.808 10.8838 13.1162V14.2325C10.8838 14.5408 11.1337 14.7907 11.4419 14.7907H12.5582C12.8665 14.7907 13.1163 14.5408 13.1163 14.2325V13.1162C13.1163 12.808 12.8665 12.5581 12.5582 12.5581Z"
          fill="currentColor"/>
    <path d="M12.5582 15.9067H11.4419C11.1337 15.9067 10.8838 16.1566 10.8838 16.4649V17.5812C10.8838 17.8894 11.1337 18.1393 11.4419 18.1393H12.5582C12.8665 18.1393 13.1163 17.8894 13.1163 17.5812V16.4649C13.1163 16.1566 12.8665 15.9067 12.5582 15.9067Z"
          fill="currentColor"/>
    <path d="M17.0233 12.5581H15.907C15.5988 12.5581 15.3489 12.808 15.3489 13.1162V14.2325C15.3489 14.5408 15.5988 14.7907 15.907 14.7907H17.0233C17.3315 14.7907 17.5814 14.5408 17.5814 14.2325V13.1162C17.5814 12.808 17.3315 12.5581 17.0233 12.5581Z"
          fill="currentColor"/>
    <path d="M17.0233 15.9067H15.907C15.5988 15.9067 15.3489 16.1566 15.3489 16.4649V17.5812C15.3489 17.8894 15.5988 18.1393 15.907 18.1393H17.0233C17.3315 18.1393 17.5814 17.8894 17.5814 17.5812V16.4649C17.5814 16.1566 17.3315 15.9067 17.0233 15.9067Z"
          fill="currentColor"/>
    <path fill-rule="evenodd" clip-rule="evenodd"
          d="M7.53484 0C7.99722 0 8.37205 0.374835 8.37205 0.837209V4.74419C8.37205 5.20656 7.99722 5.58139 7.53484 5.58139C7.07247 5.58139 6.69763 5.20656 6.69763 4.74419V0.837209C6.69763 0.374835 7.07247 0 7.53484 0Z"
          fill="currentColor"/>
    <path fill-rule="evenodd" clip-rule="evenodd"
          d="M16.4651 0C16.9275 0 17.3023 0.374835 17.3023 0.837209V4.74419C17.3023 5.20656 16.9275 5.58139 16.4651 5.58139C16.0028 5.58139 15.6279 5.20656 15.6279 4.74419V0.837209C15.6279 0.374835 16.0028 0 16.4651 0Z"
          fill="currentColor"/>
</svg>
