<svg width="27" height="21" viewBox="0 0 27 21" fill="none" xmlns="http://www.w3.org/2000/svg">
<path d="M5.49992 10.0005C4.4003 10.0005 3.50037 10.9005 3.50037 12.0002C3.50037 13.0999 4.4003 13.9999 5.49992 13.9999C6.59953 13.9999 7.49946 13.0999 7.49946 12.0002C7.49946 10.9005 6.59953 10.0005 5.49992 10.0005ZM5.49992 13.0005C4.94964 13.0005 4.49967 12.5505 4.49967 12.0002C4.49967 11.4499 4.94964 10.9999 5.49992 10.9999C6.05019 10.9999 6.50016 11.4499 6.50016 12.0002C6.50016 12.5505 6.05019 13.0005 5.49992 13.0005Z" fill="#181B19"/>
<path d="M21.4982 10.0005C20.3986 10.0005 19.4987 10.9005 19.4987 12.0002C19.4987 13.0999 20.3986 13.9999 21.4982 13.9999C22.5978 13.9999 23.4978 13.0999 23.4978 12.0002C23.4978 10.9005 22.5978 10.0005 21.4982 10.0005ZM21.4982 13.0005C20.9479 13.0005 20.498 12.5505 20.498 12.0002C20.498 11.4499 20.9479 10.9999 21.4982 10.9999C22.0485 10.9999 22.4984 11.4499 22.4984 12.0002C22.4984 12.5505 22.0485 13.0005 21.4982 13.0005Z" fill="#181B19"/>
<path d="M23.5484 6L22.6981 1.99969C22.3484 0.699375 21.3482 0 19.9983 0H6.99889C5.5993 0 4.79873 0.700312 4.39938 1.99969L3.49944 6H0V7.00031H3.25009V7.05C1.70051 7.15031 0.50059 8.44969 0.50059 10.05V16.9997H2.00049V18.4997C2.00049 19.8994 3.1001 21 4.50063 21C5.90115 21 7.00076 19.9003 7.00076 18.4997V16.9997H20.0002V18.4997C20.0002 19.8994 21.0998 21 22.5003 21C23.9008 21 25.0005 19.9003 25.0005 18.4997V16.9997H26.5003V10.05C26.5003 8.50031 25.3004 7.2 23.8005 7.05V7.00031H27V6H23.5502H23.5484ZM5.34994 2.29969C5.64992 1.39969 6.09989 0.999375 6.99983 0.999375H19.9992C20.9489 0.999375 21.4991 1.39969 21.7494 2.24906L22.7497 7.04906H4.25127L5.35088 2.29875L5.34994 2.29969ZM5.99958 18.4997C5.99958 19.35 5.34994 19.9997 4.49969 19.9997C3.64943 19.9997 2.99979 19.35 2.99979 18.4997V16.9997H5.99958V18.4997ZM23.9983 18.4997C23.9983 19.35 23.3487 19.9997 22.4984 19.9997C21.6482 19.9997 20.9985 19.35 20.9985 18.4997V16.9997H23.9983V18.4997ZM25.4982 10.05V16.0003H1.4999V10.05C1.4999 8.95031 2.39983 8.05031 3.49944 8.05031H23.4977C24.5974 8.05031 25.4973 8.95031 25.4973 10.05H25.4982Z" fill="#181B19"/>
</svg>
