<svg width="33" height="21" viewBox="0 0 33 21" fill="none" xmlns="http://www.w3.org/2000/svg">
<path d="M31.6576 8.86413L31.57 8.40046H27.9245L28.041 9.01946C28.2842 10.3301 28.4381 11.6898 28.5002 13.067H26.4627V8.40046C26.4627 7.62843 25.7645 7.00026 24.9065 7.00026H23.8691C23.7315 7.00026 23.5996 6.95108 23.5023 6.86355C23.405 6.77602 23.3503 6.65731 23.3503 6.53352V5.60005C23.3503 4.82803 22.6522 4.19985 21.7942 4.19985H17.6435V2.80041H23.8699V0H8.30217V2.80041H14.5277V4.19985H11.0183C10.4247 4.19985 9.89152 4.49596 9.62535 4.9734L9.1619 5.80817C9.11927 5.88596 9.05324 5.95144 8.97131 5.99716C8.88938 6.04287 8.79485 6.067 8.69845 6.06679H6.22642C5.36839 6.06679 4.67024 6.6942 4.67024 7.46622V10.7334H3.11406V6.99949H0V17.2661H3.11321V13.533H4.66939V17.2661C4.66939 18.0374 5.36754 18.6663 6.22557 18.6663H8.90934C9.0454 18.6663 9.17976 18.7161 9.27585 18.8033L11.2623 20.5899C11.5557 20.8546 11.9469 21 12.3627 21H24.904C25.762 21 26.4602 20.3726 26.4602 19.6006V15.8674H28.4968C28.4458 16.9431 28.336 18.0159 28.1677 19.0818L27.9372 20.534H31.5802L31.7894 19.2142C32.3338 15.7784 32.2894 12.2878 31.6576 8.86413ZM4.67024 12.5995H2.07576V16.3327H1.0383V7.93296H2.07576V11.6661H4.67024V12.5995ZM9.33963 1.86617V0.932704H22.8299V1.86617H16.6035V4.19908H15.566V1.86617H9.33963ZM7.7826 17.7329H6.22642C6.1583 17.7329 6.09085 17.7208 6.02791 17.6973C5.96498 17.6739 5.90779 17.6395 5.85962 17.5962C5.81146 17.5528 5.77325 17.5014 5.74718 17.4447C5.72111 17.3881 5.70769 17.3274 5.70769 17.2661V7.46622C5.70769 7.40493 5.72111 7.34424 5.74718 7.28761C5.77325 7.23099 5.81146 7.17953 5.85962 7.13619C5.90779 7.09285 5.96498 7.05847 6.02791 7.03502C6.09085 7.01156 6.1583 6.99949 6.22642 6.99949H7.7826V9.3324H9.85835C9.99593 9.3324 10.1279 9.38157 10.2251 9.4691C10.3224 9.55663 10.3771 9.67535 10.3771 9.79913V14.4657C10.3771 14.5895 10.3224 14.7082 10.2251 14.7957C10.1279 14.8833 9.99593 14.9324 9.85835 14.9324H7.7826V17.7329ZM12.9716 20.0658H12.3635C12.2261 20.0653 12.0944 20.0161 11.997 19.9288L10.0106 18.143C9.86649 18.0124 9.69502 17.909 9.50612 17.8386C9.31722 17.7682 9.11465 17.7322 8.91019 17.7329H8.8209V15.8659H9.85835C10.7164 15.8659 11.4145 15.2377 11.4145 14.4665V9.7999C11.4145 9.02787 10.7164 8.39969 9.85835 8.39969H8.8209V6.99184C9.08833 6.97472 9.34615 6.89505 9.56884 6.76072C9.79152 6.62638 9.97135 6.44203 10.0905 6.22593L10.5548 5.39117C10.5976 5.31351 10.6636 5.24819 10.7456 5.20262C10.8275 5.15704 10.9219 5.13303 11.0183 5.13332H12.9716V20.0658ZM17.1222 20.0658H16.0848V18.1996H15.0473V20.0658H14.0099V14.9332H15.0473V17.2661H16.0848V14.9332H17.1222V20.0658ZM19.198 20.0658H18.1605V14.9332H19.198V20.0658ZM21.2729 20.0658H20.2354V14.9332H21.2729V20.0658ZM25.4235 19.599C25.4235 19.8554 25.1914 20.0658 24.9048 20.0658H24.3861V16.7994H23.3486V20.0658H22.3112V14.9332H23.3486V15.8659H24.3861V14.9332H25.4235V19.599ZM25.4235 13.9997H14.009V13.067H25.4235V13.9997ZM18.1597 12.1328V10.2666H21.2729V12.1328H18.1597ZM25.4235 12.1328H22.3103V9.3324H17.1222V12.1328H14.009V7.93296H21.2729V6.99949H14.009V5.13332H21.7916C21.9292 5.13332 22.0611 5.18249 22.1584 5.27002C22.2557 5.35755 22.3103 5.47626 22.3103 5.60005V6.53352C22.3103 7.30478 23.0085 7.93372 23.8665 7.93372H24.904C25.0415 7.93372 25.1735 7.9829 25.2708 8.07043C25.368 8.15796 25.4227 8.27667 25.4227 8.40046L25.4235 12.1328ZM30.763 19.0803L30.6814 19.599H29.1354L29.1966 19.2126C29.3931 17.9777 29.513 16.6999 29.5555 15.413L29.5708 14.9332H26.4619V13.9997H29.5683L29.5546 13.5208C29.5144 12.1187 29.3781 10.7201 29.1465 9.33316H30.6907C30.9839 11.0187 31.1314 12.7222 31.1321 14.4282C31.1312 15.9848 31.0079 17.5394 30.763 19.0803ZM7.7826 12.5995H8.82005V11.6661H7.7826V12.5995ZM15.0465 11.1993H16.0839V10.2666H15.0465V11.1993ZM23.3486 11.1993H24.3861V10.2666H23.3486V11.1993Z" fill="#181B19"/>
</svg>
