<svg width="24" height="24" viewBox="0 0 24 24" fill="none" xmlns="http://www.w3.org/2000/svg">
<path d="M11.8579 3.05165H4.20763C3.5752 3.05165 3.05986 3.56528 3.05986 4.1969V8.01163C3.05986 8.64325 3.57455 9.15624 4.20763 9.15624H11.8579C12.4904 9.15624 13.0057 8.64325 13.0057 8.01163V4.1969C13.0057 3.56528 12.4904 3.05165 11.8579 3.05165ZM12.2401 8.01163C12.2401 8.11277 12.1999 8.20978 12.1282 8.28142C12.0566 8.35305 11.9594 8.39347 11.8579 8.39381H4.20763C4.10604 8.39364 4.00868 8.3533 3.93691 8.28164C3.86513 8.20999 3.82482 8.11288 3.82482 8.01163V4.1969C3.82482 3.98594 3.9966 3.81537 4.20763 3.81537H11.8579C12.0689 3.81537 12.2401 3.98594 12.2401 4.1969V8.01163ZM22.1177 13.1467L17.7898 12.4266C17.5213 12.3827 17.2773 12.2449 17.1016 12.038C16.9258 11.831 16.8297 11.5685 16.8305 11.2973V10.3008H17.5955V5.48707L14.5356 3.96093V2.28922H15.3006V0H0.764965V2.28922H1.52993V21.4045C1.09817 21.4933 0.710298 21.7276 0.431629 22.0681C0.152961 22.4086 0.000526802 22.8344 0 23.2737V23.6553H16.0662V23.2737C16.0657 22.8344 15.9132 22.4086 15.6346 22.0681C15.3559 21.7276 14.968 21.4933 14.5363 21.4045V20.183C14.9681 20.0943 15.356 19.86 15.6347 19.5195C15.9134 19.179 16.0658 18.7532 16.0662 18.3138V17.5507H17.5961V16.8581C18.04 17.0153 18.3611 17.4353 18.3611 17.9322V20.9845C18.3618 21.6923 18.644 22.3709 19.146 22.8716C19.648 23.3723 20.3287 23.6541 21.0388 23.6553C21.7489 23.6541 22.4296 23.3723 22.9316 22.8716C23.4335 22.3709 23.7158 21.6923 23.7165 20.9845V15.0281C23.7177 14.5763 23.5575 14.1388 23.2646 13.7941C22.9716 13.4493 22.565 13.2198 22.1177 13.1467ZM16.8305 9.53842H16.0655V8.77534H16.8305V9.53842ZM16.8305 5.95902V8.01227H16.0655V6.63232L14.5356 5.86925V4.81377L16.8305 5.95902ZM13.0057 1.52615V2.28922H13.7707V21.3661H4.58979V22.1298H14.1528C14.6514 22.1298 15.0773 22.4491 15.235 22.8928H0.829945C0.909397 22.67 1.05602 22.477 1.24974 22.3404C1.44345 22.2038 1.67479 22.1303 1.91209 22.1298H3.82482V21.3661H2.29489V2.28922H12.2407V1.52615H1.52993V0.762432H14.5356V1.52615H13.0057ZM15.3006 18.3138C15.3006 18.8114 14.9808 19.2352 14.5356 19.393V14.1868C14.9795 14.3445 15.3006 14.7639 15.3006 15.2608V18.3138ZM16.8305 16.7876H16.0655V16.0245H16.8305V16.7876ZM22.9509 20.9845C22.9505 21.4901 22.749 21.975 22.3904 22.3326C22.0318 22.6903 21.5454 22.8915 21.0381 22.8922C20.5308 22.8915 20.0445 22.6903 19.6859 22.3326C19.3273 21.975 19.1258 21.4901 19.1254 20.9845V17.9322C19.1249 17.4928 18.9725 17.0671 18.6938 16.7266C18.4151 16.3861 18.0272 16.1518 17.5955 16.063V15.2608H16.0655C16.065 14.8214 15.9126 14.3957 15.6339 14.0552C15.3553 13.7147 14.9674 13.4804 14.5356 13.3916V6.72146L15.3006 7.10299V10.3008H16.0655V11.2973C16.0643 11.749 16.2244 12.1864 16.5172 12.5311C16.8101 12.8759 17.2165 13.1054 17.6637 13.1787L21.9916 13.8988C22.26 13.9427 22.5039 14.0804 22.6796 14.2872C22.8554 14.494 22.9516 14.7564 22.9509 15.0274V20.9845ZM8.03245 10.5933L5.97368 14.6997C5.80336 15.0402 5.72307 15.4184 5.74042 15.7984C5.75777 16.1785 5.87218 16.5478 6.07281 16.8715C6.27345 17.1951 6.55366 17.4624 6.88691 17.6479C7.22016 17.8334 7.59542 17.9311 7.97712 17.9316H8.08907C8.47071 17.9309 8.84586 17.8331 9.17901 17.6476C9.51216 17.462 9.79229 17.1948 9.99289 16.8712C10.1935 16.5476 10.3079 16.1783 10.3254 15.7983C10.3428 15.4184 10.2626 15.0402 10.0925 14.6997L8.03245 10.5933ZM8.08843 17.1691H7.97648C7.7253 17.1686 7.47841 17.1041 7.25918 16.9819C7.03996 16.8597 6.85564 16.6838 6.72365 16.4708C6.59167 16.2577 6.5164 16.0147 6.50495 15.7646C6.4935 15.5145 6.54625 15.2656 6.65822 15.0415L8.03245 12.2996L9.40669 15.0415C9.51884 15.2656 9.57174 15.5145 9.56038 15.7647C9.54902 16.0149 9.47376 16.258 9.34175 16.4711C9.20973 16.6841 9.02532 16.8601 8.806 16.9822C8.58667 17.1044 8.33968 17.1687 8.08843 17.1691ZM4.97259 5.34087H9.94519V4.5778H4.97259V5.34087ZM10.7102 5.34087H11.4751V4.5778H10.7102V5.34087Z" fill="#181B19"/>
</svg>
