<svg width="23" height="23" viewBox="0 0 23 23" fill="none" xmlns="http://www.w3.org/2000/svg">
<path d="M11.3499 0C5.08099 0 0 5.06929 0 11.3227C0.00677383 17.5731 5.08407 22.6387 11.3499 22.6454C17.6187 22.6454 22.6997 17.5762 22.6997 11.3227C22.6997 5.06929 17.6181 0 11.3499 0ZM11.3499 21.8904C5.49912 21.8904 0.756206 17.1587 0.756206 11.3227C0.762979 5.48856 5.50158 0.761191 11.3499 0.754439C17.2006 0.754439 21.9435 5.4861 21.9435 11.3221C21.9429 17.1587 17.2 21.8904 11.3499 21.8904ZM11.3523 1.88395C6.12847 1.88211 1.89298 6.10549 1.89113 11.3166C1.88976 11.7333 1.91713 12.1497 1.97303 12.5627C1.99911 12.7426 2.08938 12.907 2.22727 13.0258C2.36516 13.1447 2.54141 13.21 2.72369 13.2097H7.96787C8.15303 13.2109 8.33206 13.1436 8.47045 13.021C8.60883 12.8984 8.69676 12.729 8.7173 12.5455C8.78826 11.8989 9.09621 11.3011 9.58209 10.8668C10.068 10.4326 10.6976 10.1924 11.3502 10.1924C12.0027 10.1924 12.6324 10.4326 13.1182 10.8668C13.6041 11.3011 13.9121 11.8989 13.983 12.5455C14.0036 12.729 14.0915 12.8984 14.2299 13.021C14.3683 13.1436 14.5473 13.2109 14.7325 13.2097H19.9766C20.1587 13.2099 20.3348 13.1446 20.4725 13.0259C20.6102 12.9072 20.7005 12.743 20.7267 12.5633C20.7821 12.1521 20.8098 11.7377 20.8092 11.3227C20.8092 6.11102 16.5762 1.88579 11.3523 1.88395ZM14.0822 10.8065C13.8846 10.5396 13.6487 10.3031 13.382 10.1048L15.2688 8.81754C15.2837 8.80796 15.3015 8.80387 15.319 8.80598C15.3366 8.8081 15.3529 8.81629 15.3651 8.82914C15.3772 8.84198 15.3845 8.85866 15.3856 8.87628C15.3867 8.8939 15.3815 8.91135 15.371 8.92558L14.0822 10.8065ZM19.9791 12.4547H19.9754L14.7343 12.4639C14.6997 12.145 14.6203 11.8326 14.4985 11.5357L15.993 9.35467C16.1035 9.19514 16.1545 9.00209 16.1372 8.809C16.12 8.6159 16.0355 8.43491 15.8984 8.29739C15.7613 8.15987 15.5803 8.07448 15.3867 8.05602C15.1931 8.03756 14.9991 8.08719 14.8384 8.19631L12.6467 9.69107C12.1594 9.49037 11.6319 9.40547 11.1059 9.44308C10.58 9.48069 10.07 9.63978 9.61637 9.90777C9.16251 10.1759 8.77734 10.5455 8.49126 10.9874C8.20518 11.4293 8.026 11.9314 7.96787 12.4541L2.72369 12.459C2.49726 10.7557 2.78281 9.02378 3.54423 7.48237C4.30564 5.94096 5.50867 4.65937 7.00106 3.79982C8.32406 3.03858 9.82485 2.63808 11.3524 2.63862C12.88 2.63916 14.3805 3.04071 15.703 3.80289C17.0258 4.5658 18.124 5.66222 18.8873 6.98204C19.6507 8.30186 20.0523 9.79865 20.0518 11.3221C20.0518 11.7009 20.0277 12.0796 19.9791 12.4547ZM11.7889 14.6628C11.8899 14.64 11.9884 14.6094 12.0839 14.5707C12.0919 14.5676 12.0981 14.5627 12.1061 14.559C12.3222 14.4651 12.5193 14.3319 12.6861 14.1661C12.7243 14.1281 12.749 14.0876 12.781 14.0501C12.8302 13.9967 12.877 13.9396 12.9195 13.8807C12.9516 13.8279 12.9811 13.7739 13.0076 13.7186C13.0396 13.6646 13.0686 13.6094 13.095 13.5529C13.116 13.5019 13.1271 13.4498 13.1437 13.3982C13.1671 13.3325 13.1868 13.2656 13.2028 13.1969C13.2133 13.1428 13.2133 13.0882 13.2194 13.0336C13.2299 12.9667 13.2367 12.8997 13.2398 12.8316C13.2367 12.764 13.2299 12.6965 13.2194 12.6296C13.2133 12.5756 13.2133 12.5204 13.2028 12.4664C13.1868 12.3982 13.167 12.331 13.1437 12.265C13.1277 12.2134 13.116 12.1606 13.095 12.1103C13.0687 12.0534 13.0395 11.9979 13.0076 11.944C12.9809 11.8885 12.9515 11.8344 12.9195 11.7819C12.8766 11.7228 12.8304 11.6663 12.781 11.6125C12.7483 11.575 12.7225 11.5327 12.6861 11.4958C12.5189 11.33 12.3219 11.1969 12.1054 11.1036C12.0974 11.1005 12.0913 11.0956 12.0833 11.0919C11.9875 11.0536 11.8889 11.0228 11.7883 10.9998C11.7674 10.9955 11.7483 10.9857 11.7267 10.9814C11.477 10.9305 11.2196 10.9305 10.9699 10.9814C10.949 10.9857 10.9293 10.9949 10.9083 10.9998C10.8077 11.0225 10.709 11.0533 10.6134 11.0919C10.6054 11.0956 10.5992 11.1005 10.5912 11.1036C10.3748 11.1972 10.1779 11.3302 10.0105 11.4958C9.97292 11.5333 9.94829 11.5744 9.91565 11.6125C9.86577 11.6665 9.81959 11.723 9.77648 11.7819C9.74436 11.8344 9.71497 11.8885 9.68842 11.944C9.65648 11.9979 9.6273 12.0534 9.60098 12.1103C9.58004 12.1606 9.56896 12.2128 9.55233 12.265C9.52862 12.3309 9.50888 12.3981 9.49321 12.4664C9.48274 12.5204 9.48274 12.575 9.47659 12.6296C9.46612 12.6972 9.45934 12.7641 9.45627 12.8316C9.45934 12.8991 9.46612 12.9667 9.47659 13.0336C9.48274 13.0882 9.48274 13.1428 9.49321 13.1969C9.50922 13.265 9.52893 13.3319 9.55233 13.3982C9.56834 13.4504 9.58004 13.5026 9.60098 13.5529C9.62746 13.6094 9.6564 13.6646 9.68842 13.7186C9.7149 13.7739 9.74446 13.8279 9.77648 13.8807C9.81897 13.9396 9.86577 13.9961 9.91504 14.0501C9.94767 14.0876 9.97354 14.1299 10.0099 14.1661C10.1774 14.3319 10.3744 14.4651 10.5906 14.559C10.5986 14.5621 10.6047 14.567 10.6127 14.5707C10.7082 14.6094 10.8067 14.64 10.9077 14.6628C10.9286 14.6677 10.9477 14.6775 10.9693 14.6812C11.2187 14.7321 11.4761 14.7321 11.7261 14.6812C11.7489 14.6775 11.768 14.6677 11.7889 14.6628ZM10.5844 13.6628H10.5826C10.5489 13.6312 10.5172 13.5976 10.4877 13.5621C10.4586 13.5305 10.4313 13.4973 10.4058 13.4627C10.386 13.4301 10.3679 13.3965 10.3516 13.362C10.3329 13.3311 10.316 13.2991 10.3011 13.2662C10.2876 13.2343 10.2808 13.1999 10.2704 13.1674C10.2573 13.1303 10.246 13.0926 10.2365 13.0544C10.2304 13.0158 10.2265 12.9769 10.2248 12.9378C10.218 12.8694 10.218 12.8005 10.2248 12.7322C10.2266 12.6929 10.2303 12.6536 10.2365 12.6155C10.2457 12.5768 10.2568 12.5388 10.2704 12.502C10.2808 12.4694 10.2882 12.435 10.3011 12.4031C10.3141 12.3712 10.335 12.3393 10.3516 12.3067C10.3677 12.2724 10.3861 12.2386 10.4058 12.2061C10.4311 12.1717 10.4582 12.1385 10.4877 12.1072C10.6013 11.9714 10.7451 11.8638 10.9077 11.7929C10.965 11.7696 11.0241 11.7512 11.0844 11.7377C11.0968 11.7346 11.1085 11.7291 11.1226 11.7266C11.2723 11.696 11.4268 11.696 11.5765 11.7266C11.5894 11.7291 11.6011 11.7346 11.6147 11.7377C11.675 11.7512 11.7341 11.7696 11.7914 11.7929C11.7963 11.7929 11.8006 11.7985 11.8056 11.8003C11.9632 11.8709 12.1024 11.9759 12.2126 12.1085C12.2415 12.1398 12.268 12.1729 12.2933 12.2067C12.313 12.2392 12.3314 12.273 12.3475 12.3074C12.3641 12.3393 12.3856 12.3706 12.398 12.4037C12.4109 12.4369 12.4183 12.47 12.4287 12.5026C12.4417 12.54 12.4534 12.5775 12.4626 12.6161C12.47 12.6536 12.4712 12.6947 12.4749 12.7346C12.4811 12.8021 12.4811 12.869 12.4749 12.936C12.4712 12.9759 12.4706 13.0164 12.4626 13.055C12.4536 13.0933 12.4423 13.131 12.4287 13.168C12.4183 13.2005 12.4109 13.2355 12.398 13.2668C12.3844 13.2988 12.3641 13.3313 12.3475 13.3632C12.3311 13.3975 12.313 13.4309 12.2933 13.4633C12.268 13.4976 12.2409 13.5308 12.2126 13.5621C12.115 13.6795 11.9943 13.7757 11.858 13.8449C11.7217 13.914 11.5727 13.9546 11.4201 13.9642C11.2675 13.973 11.1148 13.9509 10.9712 13.8991C10.8275 13.8472 10.6959 13.7669 10.5844 13.6628ZM16.7018 5.98456C16.6981 5.98088 16.6919 5.97904 16.6882 5.97535C16.1777 5.46507 15.5952 5.03182 14.9591 4.68931C14.8514 4.62894 14.7415 4.57262 14.6296 4.52049C14.5067 4.46087 14.3819 4.40539 14.2552 4.35414C14.2521 4.35414 14.2503 4.34984 14.2472 4.34861C14.2435 4.34677 14.2411 4.34861 14.2386 4.34861L14.2189 4.34125C14.1187 4.29622 14.0164 4.25627 13.9122 4.22154C13.5778 4.09877 13.2342 4.00239 12.8844 3.9318C12.7618 3.90556 12.6384 3.88324 12.5143 3.86489C12.5026 3.86243 12.4916 3.85998 12.4792 3.85875C12.2532 3.82642 12.026 3.80247 11.7982 3.78693C11.4979 3.77097 11.1969 3.77097 10.8966 3.78693C10.6597 3.80333 10.4234 3.82892 10.1885 3.86366C10.0622 3.88392 9.94029 3.90172 9.82636 3.92934C9.47782 3.99871 9.13543 4.09447 8.80228 4.21663C8.69388 4.25221 8.5874 4.29339 8.4833 4.34002L8.46359 4.348H8.45497C8.45251 4.348 8.45004 4.35168 8.44696 4.35352C8.3219 4.40401 8.19866 4.45888 8.07748 4.51804C7.31152 4.88332 6.61366 5.37616 6.01393 5.97535C6.00962 5.97904 6.00469 5.98026 6.00038 5.98456C5.99607 5.98886 5.99545 5.99377 5.99176 5.99745C5.48 6.50742 5.04541 7.0889 4.70165 7.72364C4.64141 7.83102 4.58512 7.94057 4.53292 8.05205C4.4738 8.17023 4.41977 8.29086 4.37097 8.41362L4.36666 8.42406C4.36666 8.42774 4.36173 8.42958 4.35988 8.43326C4.35804 8.43695 4.35988 8.44125 4.35742 8.44493C4.35496 8.44923 4.35249 8.45659 4.35003 8.46273C4.30516 8.56232 4.26549 8.66415 4.23118 8.76782C4.10734 9.10178 4.01015 9.44498 3.94052 9.7942C3.91399 9.91663 3.8914 10.0399 3.87278 10.1637L3.86724 10.1969C3.83527 10.4225 3.81164 10.6491 3.79642 10.8764C3.78719 11.0213 3.78288 11.1723 3.78288 11.3227C3.78288 11.5308 3.95222 11.7002 4.16159 11.7002H5.29652C5.39323 11.6947 5.48416 11.6526 5.55068 11.5824C5.61719 11.5122 5.65425 11.4193 5.65425 11.3227C5.65425 11.2262 5.61719 11.1333 5.55068 11.0631C5.48416 10.9929 5.39323 10.9507 5.29652 10.9452H4.54955V10.9225C4.56371 10.7156 4.58465 10.5118 4.61359 10.3111C4.61359 10.3043 4.61606 10.2976 4.61729 10.2902C4.63453 10.1773 4.65239 10.0686 4.67887 9.95258C4.73922 9.65485 4.82112 9.36265 4.92457 9.07721L5.61119 9.36081C5.70404 9.39907 5.80833 9.399 5.90113 9.3606C5.99392 9.32221 6.06761 9.24864 6.10599 9.15609C6.14437 9.06353 6.1443 8.95957 6.10578 8.86707C6.06727 8.77457 5.99347 8.70111 5.90062 8.66285L5.21338 8.37863V8.37495C5.49071 7.8005 5.84973 7.26894 6.27934 6.7967L6.80277 7.3191C6.83795 7.35413 6.8797 7.3819 6.92565 7.40085C6.9716 7.41979 7.02083 7.42952 7.07056 7.42949C7.12028 7.42946 7.1695 7.41967 7.21543 7.40068C7.26135 7.38169 7.30307 7.35386 7.33821 7.31879C7.37335 7.28373 7.40121 7.24211 7.42021 7.1963C7.43921 7.1505 7.44898 7.10142 7.44895 7.05185C7.44892 7.00229 7.4391 6.95322 7.42005 6.90744C7.40099 6.86166 7.37308 6.82007 7.3379 6.78504L6.81201 6.26448C7.20655 5.90996 7.64189 5.60334 8.10889 5.35105C8.20187 5.29887 8.29548 5.25038 8.3977 5.20311L8.68282 5.88941C8.70049 5.93692 8.72759 5.98039 8.76251 6.01722C8.79742 6.05405 8.83942 6.08349 8.886 6.10377C8.93258 6.12405 8.98279 6.13475 9.03362 6.13525C9.08445 6.13575 9.13486 6.12602 9.18183 6.10666C9.2288 6.08729 9.27138 6.05868 9.30701 6.02254C9.34263 5.9864 9.37059 5.94347 9.38919 5.89631C9.4078 5.84916 9.41667 5.79875 9.41529 5.74809C9.41391 5.69744 9.40229 5.64759 9.38114 5.60151L9.09787 4.91521C9.38668 4.81147 9.68288 4.72859 9.98401 4.66844C10.0933 4.64476 10.2034 4.6249 10.3141 4.60889C10.3215 4.60889 10.3295 4.60582 10.3369 4.60398C10.537 4.57636 10.7408 4.55426 10.9422 4.54014H10.9711V5.28291C10.9691 5.33373 10.9773 5.38444 10.9954 5.43199C11.0135 5.47955 11.0411 5.52297 11.0764 5.55965C11.1118 5.59633 11.1542 5.62551 11.2011 5.64545C11.248 5.66538 11.2985 5.67566 11.3495 5.67566C11.4006 5.67566 11.4511 5.66538 11.498 5.64545C11.5449 5.62551 11.5873 5.59633 11.6227 5.55965C11.658 5.52297 11.6856 5.47955 11.7037 5.43199C11.7218 5.38444 11.73 5.33373 11.728 5.28291V4.5383H11.7507C11.9577 4.55303 12.1615 4.57636 12.3604 4.60214L12.3844 4.60705C12.4977 4.62424 12.6055 4.64204 12.7249 4.66844C13.023 4.72859 13.3161 4.81085 13.6025 4.91337L13.3167 5.59967C13.2928 5.65691 13.2834 5.71918 13.2894 5.78091C13.2954 5.84265 13.3166 5.90195 13.3512 5.95353C13.3858 6.00511 13.4326 6.04738 13.4875 6.07657C13.5424 6.10576 13.6037 6.12097 13.6659 6.12084C13.8192 6.12084 13.9572 6.02876 14.0157 5.88757L14.3002 5.20127L14.3039 5.20311C14.8795 5.47921 15.4121 5.83669 15.8852 6.26448L15.3612 6.78688C15.3261 6.82191 15.2982 6.86349 15.2792 6.90926C15.2602 6.95502 15.2504 7.00407 15.2504 7.0536C15.2504 7.10314 15.2602 7.15219 15.2792 7.19796C15.2982 7.24372 15.3261 7.2853 15.3612 7.32033C15.3963 7.35536 15.438 7.38314 15.484 7.4021C15.5299 7.42105 15.5791 7.43081 15.6288 7.43081C15.6785 7.43081 15.7277 7.42105 15.7736 7.4021C15.8195 7.38314 15.8612 7.35536 15.8963 7.32033L16.4179 6.79609C16.8471 7.26941 17.2055 7.802 17.482 8.3774L16.7936 8.66162C16.7007 8.69996 16.6269 8.7735 16.5885 8.86606C16.55 8.95862 16.55 9.06261 16.5885 9.15517C16.627 9.24772 16.7007 9.32126 16.7936 9.35959C16.8864 9.39793 16.9907 9.39793 17.0836 9.35958L17.7708 9.07537C17.913 9.46877 18.0156 9.87531 18.0769 10.289C18.0769 10.2957 18.0793 10.3025 18.0806 10.3092C18.1089 10.51 18.1305 10.7132 18.1446 10.9157V10.944H17.4007C17.3003 10.944 17.204 10.9837 17.1329 11.0545C17.0619 11.1253 17.022 11.2214 17.022 11.3215C17.022 11.4216 17.0619 11.5176 17.1329 11.5884C17.204 11.6592 17.3003 11.699 17.4007 11.699H18.5357C18.745 11.699 18.9144 11.5296 18.9144 11.3215C18.9144 11.1705 18.9101 11.0195 18.9021 10.8691C18.8866 10.644 18.8628 10.4196 18.8306 10.1963C18.8306 10.1852 18.8275 10.1742 18.8251 10.1637C18.807 10.0419 18.7851 9.92074 18.7592 9.80034C18.69 9.45287 18.5937 9.11134 18.471 8.77887C18.4348 8.67049 18.3933 8.56396 18.3466 8.45966C18.3447 8.45299 18.3425 8.44643 18.3398 8.44002V8.43204C18.3398 8.42958 18.3355 8.42713 18.3343 8.42406C18.2836 8.29939 18.2286 8.17654 18.1693 8.05574C17.8033 7.29149 17.3091 6.59517 16.708 5.99684C16.7067 5.99377 16.7055 5.98824 16.7018 5.98456ZM8.32319 16.2287C8.42363 16.2287 8.51996 16.1889 8.59098 16.1182C8.66201 16.0473 8.70191 15.9513 8.70191 15.8512C8.70191 15.7511 8.66201 15.655 8.59098 15.5842C8.51996 15.5134 8.42363 15.4737 8.32319 15.4737H7.56637C7.36559 15.4738 7.17309 15.5535 7.03118 15.695C6.88926 15.8366 6.80955 16.0286 6.80955 16.2287V18.8714C6.80955 18.9715 6.84941 19.0674 6.92038 19.1381C6.99135 19.2089 7.0876 19.2486 7.18796 19.2486C7.28832 19.2486 7.38457 19.2089 7.45553 19.1381C7.5265 19.0674 7.56637 18.9715 7.56637 18.8714V17.7388H8.32319C8.42363 17.7388 8.51996 17.6991 8.59098 17.6283C8.66201 17.5575 8.70191 17.4614 8.70191 17.3613C8.70191 17.2612 8.66201 17.1652 8.59098 17.0944C8.51996 17.0236 8.42363 16.9838 8.32319 16.9838H7.56637V16.2287H8.32319ZM10.9711 15.4743C10.8708 15.4744 10.7746 15.5143 10.7037 15.5851C10.6329 15.6559 10.593 15.7518 10.593 15.8518V18.1164C10.593 18.2164 10.5532 18.3123 10.4822 18.3831C10.4112 18.4538 10.315 18.4936 10.2146 18.4936C10.1143 18.4936 10.018 18.4538 9.94705 18.3831C9.87608 18.3123 9.83621 18.2164 9.83621 18.1164V15.8518C9.83227 15.7544 9.79068 15.6623 9.72015 15.5948C9.64961 15.5272 9.5556 15.4895 9.4578 15.4895C9.36 15.4895 9.266 15.5272 9.19546 15.5948C9.12493 15.6623 9.08334 15.7544 9.07939 15.8518V18.1164C9.07939 18.4164 9.19897 18.7042 9.41181 18.9163C9.62464 19.1285 9.91332 19.2477 10.2143 19.2477C10.5153 19.2477 10.804 19.1285 11.0168 18.9163C11.2297 18.7042 11.3492 18.4164 11.3492 18.1164V15.8518C11.3493 15.8023 11.3396 15.7532 11.3206 15.7074C11.3017 15.6616 11.2738 15.62 11.2387 15.5849C11.2036 15.5498 11.1619 15.522 11.116 15.503C11.0701 15.4841 11.0208 15.4743 10.9711 15.4743ZM13.2416 16.2287C13.342 16.2287 13.4384 16.1889 13.5094 16.1182C13.5804 16.0473 13.6203 15.9513 13.6203 15.8512C13.6203 15.7511 13.5804 15.655 13.5094 15.5842C13.4384 15.5134 13.342 15.4737 13.2416 15.4737H12.4848C12.284 15.4738 12.0915 15.5535 11.9496 15.695C11.8077 15.8366 11.728 16.0286 11.728 16.2287V18.4933C11.728 18.9107 12.0667 19.2483 12.4848 19.2483H13.2416C13.342 19.2483 13.4382 19.2086 13.5092 19.1378C13.5801 19.0671 13.62 18.9711 13.62 18.8711C13.62 18.7711 13.5801 18.6751 13.5092 18.6044C13.4382 18.5336 13.342 18.4939 13.2416 18.4939H12.4848V17.7394H13.2416C13.342 17.7394 13.4384 17.6997 13.5094 17.6289C13.5804 17.5581 13.6203 17.462 13.6203 17.3619C13.6203 17.2618 13.5804 17.1658 13.5094 17.095C13.4384 17.0242 13.342 16.9844 13.2416 16.9844H12.4848V16.2293H13.2416V16.2287ZM15.8896 18.4933H14.7546V15.8512C14.7507 15.7538 14.7091 15.6617 14.6386 15.5941C14.568 15.5266 14.474 15.4889 14.3762 15.4889C14.2784 15.4889 14.1844 15.5266 14.1139 15.5941C14.0433 15.6617 14.0018 15.7538 13.9978 15.8512V18.8708C13.9978 19.0789 14.1672 19.2477 14.3759 19.2477H15.8889C15.9867 19.2439 16.0791 19.2025 16.1469 19.1322C16.2147 19.062 16.2526 18.9683 16.2527 18.8708C16.2528 18.7733 16.215 18.6796 16.1473 18.6092C16.0796 18.5388 15.9873 18.4973 15.8896 18.4933Z" fill="#181B19"/>
</svg>
