<svg width="236" height="97" viewBox="0 0 236 97" fill="none" xmlns="http://www.w3.org/2000/svg">
<path d="M61.6145 36.6206C61.6145 36.6206 64.7188 43.8641 71.2857 43.8641C88.3198 45.1377 100.339 45.4959 120.239 46.7296C120.239 46.7296 71.8429 46.1724 68.3804 46.0531C68.3804 46.0531 65.7138 46.4112 63.8831 43.1875C63.8035 43.1875 61.8533 38.2126 61.6145 36.6206Z" fill="#181B19" stroke="#181B19" stroke-miterlimit="10"/>
<path d="M234.105 51.3461C237.09 55.8435 233.189 57.117 233.189 57.117C224.792 60.4602 197.808 60.2214 197.808 60.2214C172.694 60.5796 157.372 58.3906 157.372 58.3906C157.61 57.117 157.013 49.6348 157.013 49.6348C157.013 49.6348 170.505 50.3114 173.849 50.1124C173.849 50.1124 176.037 53.9331 179.739 54.0127C179.739 54.0127 202.106 55.7241 215.001 54.9281C214.961 54.8087 232.234 54.0127 234.105 51.3461Z" fill="#181B19" stroke="#181B19" stroke-miterlimit="10"/>
<path d="M202.504 36.6998C202.504 36.6998 196.614 27.2674 186.704 22.7701C185.191 22.0935 184.037 21.8547 182.326 21.6159C174.963 20.4617 153.75 16.9992 144.516 17.1186C144.516 17.1186 135.402 16.7604 133.452 16.8798C133.452 16.8798 143.601 16.4022 149.133 16.3226C154.665 16.2032 167.56 15.2878 178.067 16.3226C188.574 17.3573 213.568 18.8697 223.478 25.3172C223.001 25.0784 218.424 23.3671 212.653 22.5711C212.295 22.5711 211.379 22.4517 210.941 22.4517C206.205 22.5711 202.066 22.5711 197.569 23.1283C196.295 23.3671 195.499 23.6854 196.176 24.76C197.688 27.3868 200.673 33.4761 202.504 36.6998Z" fill="#181B19" stroke="#181B19" stroke-miterlimit="10"/>
<path d="M203.22 34.073C203.22 34.073 199.081 28.4215 198.484 25.9937C197.927 23.566 200.116 24.0436 200.315 23.8048C200.554 23.6854 209.19 23.4466 210.345 23.4466C212.056 23.3272 212.653 23.3272 213.926 23.566C215.2 23.8048 218.543 24.2426 221.767 25.3967C221.767 25.3967 224.195 26.1927 224.991 28.3817C224.991 28.3817 226.384 31.7248 226.702 33.5556C227.06 35.068 227.737 37.257 224.871 37.0182C221.886 36.7794 211.976 36.461 208.394 36.461C204.812 36.3814 203.459 34.1924 203.22 34.073Z" fill="#181B19" stroke="#181B19" stroke-miterlimit="10"/>
<path d="M180.177 25.6753C180.177 25.6753 180.535 22.9292 184.316 23.6058C184.316 23.6058 191.44 25.556 192.395 31.2075C192.395 31.2075 192.873 33.6352 189.967 33.9536C189.967 33.9536 186.067 35.1078 181.331 29.4563C180.734 28.6603 179.938 26.9091 180.177 25.6753Z" fill="#181B19" stroke="#181B19" stroke-miterlimit="10"/>
<path d="M186.505 23.9243C186.505 23.9243 191.679 26.3521 192.713 30.0136C192.713 30.0136 193.072 32.5608 192.236 32.8792C191.559 33.2374 194.783 32.521 193.509 29.2972C193.669 29.337 192.037 25.8745 186.505 23.9243Z" fill="#181B19" stroke="#181B19" stroke-miterlimit="10"/>
<path d="M167.6 24.0437C167.6 24.0437 165.411 25.3173 165.968 27.1481C165.968 27.1481 167.003 31.526 173.331 32.6802C173.331 32.6802 178.386 32.919 178.187 29.5758C178.187 29.5758 178.067 25.9939 170.943 23.6855C170.943 23.6855 169.232 23.2478 167.6 24.0437Z" fill="#181B19" stroke="#181B19" stroke-miterlimit="10"/>
<path d="M176.595 32.6802C176.595 32.6802 182.127 30.3719 176.595 25.7551C176.595 25.7551 174.764 24.2428 171.859 23.4468C171.859 23.4468 175.082 23.805 177.391 25.6357C177.948 25.9939 180.853 28.6207 179.222 31.2873C178.107 32.6802 177.072 32.5608 176.595 32.6802Z" fill="#181B19" stroke="#181B19" stroke-miterlimit="10"/>
<path d="M174.883 15.1684C174.883 15.1684 162.784 13.5367 133.731 14.6908C133.731 14.6908 123.025 15.7256 120.597 13.059C120.597 13.059 113.115 6.25336 110.13 4.30319C110.13 4.30319 106.229 1.99483 112.319 2.11423C112.319 2.11423 122.905 1.19886 143.561 3.94501C144.954 4.18381 145.989 4.4226 147.382 4.86039C153.073 6.77076 170.505 12.7407 174.883 15.1684Z" fill="#181B19" stroke="#181B19" stroke-miterlimit="10"/>
<path d="M116.219 17.2383C116.219 17.2383 108.14 1.43801 91.9017 4.22396C86.1308 5.25874 81.5141 6.65171 77.9719 8.04468C77.4943 8.28348 76.9372 8.72127 77.7331 9.43766C80.8375 12.1042 82.7877 15.4474 83.8224 17.5169C84.3796 18.5517 84.1806 18.5517 85.4542 18.4323C98.0308 17.9547 114.15 17.3577 116.219 17.2383ZM73.7134 9.87544C67.9425 12.741 64.0422 14.3728 60.2214 20.1437C65.9923 18.3129 74.0318 18.8701 80.1609 18.6313C81.1957 18.6313 81.7927 18.3925 81.3151 17.3577C79.6833 13.8952 77.4943 11.7062 75.6636 10.1143C75.3054 9.51726 74.2706 9.39785 73.7134 9.87544Z" fill="#181B19" stroke="#181B19" stroke-miterlimit="10"/>
<path d="M73.9521 48.4805C73.9521 48.4805 67.7435 49.3959 62.8879 49.9929C62.8879 49.9929 105.155 51.0276 116.935 49.7541C117.015 49.8735 79.4843 49.0377 73.9521 48.4805Z" fill="#181B19" stroke="#181B19" stroke-miterlimit="10"/>
<path d="M225.906 27.5062C225.906 27.5062 228.453 28.1827 230.403 33.9536C230.403 33.9536 231.08 36.1426 229.926 36.0232C229.926 36.0232 228.891 36.0232 226.821 31.2871C226.702 31.2075 224.752 27.3868 225.906 27.5062Z" fill="#181B19" stroke="#181B19" stroke-miterlimit="10"/>
<path d="M136.278 30.6106C136.636 31.1678 150.088 27.944 148.496 51.1072C147.82 56.0424 146.188 64.7186 136.955 65.8728C136.955 65.8728 151.362 68.1812 152.277 49.6347C152.158 44.7791 150.685 28.4216 136.278 30.6106Z" fill="#181B19" stroke="#181B19" stroke-miterlimit="10"/>
<path d="M153.432 51.585C153.432 51.585 153.432 63.684 141.452 66.9077C141.452 66.9077 152.039 67.1465 154.347 65.9923C154.347 65.9923 158.367 62.888 159.282 61.3756C159.282 61.3756 155.382 61.3756 153.75 60.8184C153.79 60.8184 153.909 52.0626 153.432 51.585Z" fill="#181B19" stroke="#181B19" stroke-miterlimit="10"/>
<path d="M192.514 62.0523C192.514 62.0523 211.539 62.4105 220.056 61.5747C219.1 63.3259 205.171 74.6289 192.514 62.0523Z" fill="#181B19" stroke="#181B19" stroke-miterlimit="10"/>
<path d="M80.5988 60.102C80.5988 60.102 112.995 60.2214 119.443 60.2214C119.443 60.2214 71.843 57.4752 39.8443 54.0127C39.7249 54.1321 75.1065 59.5448 80.5988 60.102Z" fill="#181B19" stroke="#181B19" stroke-miterlimit="10"/>
<path d="M46.7295 60.5797C46.7295 60.5797 65.3954 60.6991 71.8429 60.5797C71.8429 60.5797 57.1967 58.3907 20.1038 53.3362C20.1436 53.2964 39.3666 57.9131 46.7295 60.5797Z" fill="#181B19" stroke="#181B19" stroke-miterlimit="10"/>
<path d="M91.9017 1C80.8375 1.55719 67.7037 6.8903 58.8284 14.9298C51.784 21.4967 35.6652 34.0733 1 42.3515C1 42.3515 41.5555 33.2375 59.7438 15.6064C65.8729 10.91 71.8428 4.34314 91.9017 1Z" fill="#181B19" stroke="#181B19" stroke-miterlimit="10"/>
<path d="M17.1136 93V75.5455H23.0114C24.375 75.5455 25.4943 75.7784 26.3693 76.2443C27.2443 76.7045 27.892 77.3381 28.3125 78.1449C28.733 78.9517 28.9432 79.8693 28.9432 80.8977C28.9432 81.9261 28.733 82.8381 28.3125 83.6335C27.892 84.429 27.2472 85.054 26.3778 85.5085C25.5085 85.9574 24.3977 86.1818 23.0455 86.1818H18.2727V84.2727H22.9773C23.9091 84.2727 24.6591 84.1364 25.2273 83.8636C25.8011 83.5909 26.2159 83.2045 26.4716 82.7045C26.733 82.1989 26.8636 81.5966 26.8636 80.8977C26.8636 80.1989 26.733 79.5881 26.4716 79.0653C26.2102 78.5426 25.7926 78.1392 25.2188 77.8551C24.6449 77.5653 23.8864 77.4205 22.9432 77.4205H19.2273V93H17.1136ZM25.3295 85.1591L29.625 93H27.1705L22.9432 85.1591H25.3295ZM32.4652 93V75.5455H42.9993V77.4205H34.5788V83.3182H42.4538V85.1932H34.5788V91.125H43.1357V93H32.4652ZM60.6499 75.5455V93H58.6044L49.093 79.2955H48.9226V93H46.8089V75.5455H48.8544L58.3999 89.2841H58.5703V75.5455H60.6499ZM63.9247 77.4205V75.5455H77.0156V77.4205H71.527V93H69.4134V77.4205H63.9247ZM93.5966 81H91.483C91.358 80.392 91.1392 79.858 90.8267 79.3977C90.5199 78.9375 90.1449 78.5511 89.7017 78.2386C89.2642 77.9205 88.7784 77.6818 88.2443 77.5227C87.7102 77.3636 87.1534 77.2841 86.5739 77.2841C85.517 77.2841 84.5597 77.5511 83.7017 78.0852C82.8494 78.6193 82.1705 79.4062 81.6648 80.446C81.1648 81.4858 80.9148 82.7614 80.9148 84.2727C80.9148 85.7841 81.1648 87.0597 81.6648 88.0994C82.1705 89.1392 82.8494 89.9261 83.7017 90.4602C84.5597 90.9943 85.517 91.2614 86.5739 91.2614C87.1534 91.2614 87.7102 91.1818 88.2443 91.0227C88.7784 90.8636 89.2642 90.6278 89.7017 90.3153C90.1449 89.9972 90.5199 89.608 90.8267 89.1477C91.1392 88.6818 91.358 88.1477 91.483 87.5455H93.5966C93.4375 88.4375 93.1477 89.2358 92.7273 89.9403C92.3068 90.6449 91.7841 91.2443 91.1591 91.7386C90.5341 92.2273 89.8324 92.5994 89.054 92.8551C88.2813 93.1108 87.4545 93.2386 86.5739 93.2386C85.0852 93.2386 83.7614 92.875 82.6023 92.1477C81.4432 91.4205 80.5313 90.3864 79.8665 89.0455C79.2017 87.7045 78.8693 86.1136 78.8693 84.2727C78.8693 82.4318 79.2017 80.8409 79.8665 79.5C80.5313 78.1591 81.4432 77.125 82.6023 76.3977C83.7614 75.6705 85.0852 75.3068 86.5739 75.3068C87.4545 75.3068 88.2813 75.4347 89.054 75.6903C89.8324 75.946 90.5341 76.321 91.1591 76.8153C91.7841 77.304 92.3068 77.9006 92.7273 78.6051C93.1477 79.304 93.4375 80.1023 93.5966 81ZM97.728 93H95.5121L101.921 75.5455H104.103L110.512 93H108.296L103.08 78.3068H102.944L97.728 93ZM98.5462 86.1818H107.478V88.0568H98.5462V86.1818ZM113.231 93V75.5455H119.129C120.492 75.5455 121.612 75.7784 122.487 76.2443C123.362 76.7045 124.009 77.3381 124.43 78.1449C124.85 78.9517 125.06 79.8693 125.06 80.8977C125.06 81.9261 124.85 82.8381 124.43 83.6335C124.009 84.429 123.364 85.054 122.495 85.5085C121.626 85.9574 120.515 86.1818 119.163 86.1818H114.39V84.2727H119.094C120.026 84.2727 120.776 84.1364 121.344 83.8636C121.918 83.5909 122.333 83.2045 122.589 82.7045C122.85 82.1989 122.981 81.5966 122.981 80.8977C122.981 80.1989 122.85 79.5881 122.589 79.0653C122.327 78.5426 121.91 78.1392 121.336 77.8551C120.762 77.5653 120.004 77.4205 119.06 77.4205H115.344V93H113.231ZM121.447 85.1591L125.742 93H123.288L119.06 85.1591H121.447Z" fill="#181B19"/>
</svg>
