<svg width="24" height="20" viewBox="0 0 24 20" fill="none" xmlns="http://www.w3.org/2000/svg">
<path fill-rule="evenodd" clip-rule="evenodd" d="M2.94178 2.68876C2.18275 3.37133 1.67442 4.47886 1.67442 6.21622V13.7838C1.67442 15.5211 2.18275 16.6286 2.94178 17.3112C3.71202 18.0039 4.87252 18.3784 6.4186 18.3784H17.5814C19.1274 18.3784 20.2879 18.0039 21.0583 17.3112C21.8172 16.6286 22.3256 15.5211 22.3256 13.7838V6.21622C22.3256 4.47886 21.8172 3.37133 21.0583 2.68876C20.2879 1.99608 19.1274 1.62162 17.5814 1.62162H6.4186C4.87252 1.62162 3.71202 1.99608 2.94178 2.68876ZM1.80241 1.50043C2.98566 0.436357 4.61585 0 6.4186 0H17.5814C19.3842 0 21.0144 0.436357 22.1975 1.50043C23.3921 2.57462 24 4.16978 24 6.21622V13.7838C24 15.8303 23.3921 17.4254 22.1975 18.4996C21.0144 19.5637 19.3842 20 17.5814 20H6.4186C4.61585 20 2.98566 19.5637 1.80241 18.4996C0.607948 17.4254 0 15.8303 0 13.7838V6.21622C0 4.16978 0.607948 2.57462 1.80241 1.50043Z" fill="#709583"/>
<path fill-rule="evenodd" clip-rule="evenodd" d="M20.2194 4.93033C20.5022 5.28466 20.4347 5.79387 20.0689 6.06767L13.8768 10.7015C12.7713 11.5287 11.2285 11.5287 10.1229 10.7015L3.93082 6.06767C3.56494 5.79387 3.49753 5.28466 3.78025 4.93033C4.06297 4.57598 4.58874 4.51069 4.95463 4.7845L11.1466 9.41826C11.6492 9.79437 12.3505 9.79437 12.853 9.41826L19.0451 4.7845C19.411 4.51069 19.9368 4.57598 20.2194 4.93033Z" fill="#709583"/>
</svg>
