<svg width="18" height="21" viewBox="0 0 18 21" fill="none" xmlns="http://www.w3.org/2000/svg">
<path fill-rule="evenodd" clip-rule="evenodd" d="M9.0001 6.35071C8.05974 6.35071 7.29744 7.11617 7.29744 8.06041C7.29744 9.00466 8.05974 9.77012 9.0001 9.77012C9.94045 9.77012 10.7028 9.00466 10.7028 8.06041C10.7028 7.11617 9.94045 6.35071 9.0001 6.35071ZM5.83801 8.06041C5.83801 6.30682 7.25375 4.88525 9.0001 4.88525C10.7464 4.88525 12.1622 6.30682 12.1622 8.06041C12.1622 9.81398 10.7464 11.2356 9.0001 11.2356C7.25375 11.2356 5.83801 9.81398 5.83801 8.06041Z" fill="#709583"/>
<path fill-rule="evenodd" clip-rule="evenodd" d="M16.3687 7.24343C14.6491 -0.454899 3.35981 -0.463024 1.63119 7.23402C1.14609 9.40551 1.73786 11.4479 2.81771 13.3075C3.90186 15.1746 5.44432 16.7984 6.76509 18.0982C6.76538 18.0985 6.76568 18.0988 6.76598 18.0991L7.04264 18.3695C7.04331 18.3702 7.04399 18.3709 7.04466 18.3715C7.98114 19.2721 8.5579 19.5397 9.01208 19.5345C9.47111 19.5292 10.0548 19.2432 10.9981 18.3209L10.9994 18.3196C12.3321 17.023 13.9415 15.3797 15.0866 13.4727C16.2271 11.5732 16.868 9.47758 16.3687 7.24343ZM6.02872 19.4236L5.9754 19.372L5.97448 19.3711C5.89896 19.2973 5.82223 19.2222 5.74447 19.1457C4.41003 17.8325 2.74611 16.0937 1.55694 14.0456C0.363281 11.99 -0.385228 9.56446 0.20724 6.91287C2.27824 -2.31083 15.7325 -2.30002 17.7927 6.92268C18.4025 9.65161 17.5921 12.1379 16.3363 14.2293C15.0853 16.313 13.3537 18.0695 12.0154 19.3716C11.0389 20.3263 10.0955 20.9875 9.02881 20.9998C7.9573 21.0122 7.00996 20.3678 6.0329 19.4277L6.02872 19.4236Z" fill="#709583"/>
</svg>
