<svg width="23" height="23" viewBox="0 0 23 23" fill="none" xmlns="http://www.w3.org/2000/svg">
<path fill-rule="evenodd" clip-rule="evenodd" d="M20.6243 17.1958C20.3427 16.4347 19.867 15.7603 19.2444 15.2397C18.6219 14.719 17.8741 14.37 17.0751 14.2274L13.7247 13.6352V13.2209H13.6875C14.7259 12.5684 15.4649 11.5325 15.7437 10.3383C16.1722 10.2824 16.5657 10.0728 16.8511 9.74844C17.1366 9.42412 17.2945 9.00715 17.2955 8.5751V6.07445C17.2955 2.72525 14.5721 0 11.2247 0C7.87727 0 5.15443 2.72465 5.15443 6.07445V8.5757C5.15558 9.00771 5.31355 9.42461 5.59897 9.74892C5.88439 10.0732 6.27785 10.2829 6.70622 10.3389C6.9849 11.5332 7.7239 12.5692 8.76246 13.2215H8.72523V13.6358L5.37482 14.2274C4.57585 14.37 3.82801 14.7189 3.20545 15.2396C2.58289 15.7603 2.10724 16.4347 1.82564 17.1958L0 22.1539H22.4499L20.6243 17.1958ZM15.8524 9.5864C15.859 9.48792 15.8674 9.39063 15.8674 9.29034V7.56919C16.2818 7.71753 16.5815 8.11028 16.5815 8.5751C16.5815 9.04592 16.2746 9.44287 15.8524 9.5864ZM5.86847 8.5757C5.86847 8.11028 6.16814 7.71813 6.58251 7.56979V9.29094C6.58251 9.39123 6.59092 9.48852 6.59752 9.58701C6.38568 9.51558 6.20148 9.37967 6.07075 9.19832C5.94001 9.01696 5.86928 8.79926 5.86847 8.5757ZM7.29715 9.29034V6.43177C7.29715 6.2342 7.45689 6.07445 7.65447 6.07445H13.0107V5.35981H7.65447C7.06354 5.35981 6.58311 5.84084 6.58311 6.43177V6.82513C6.31767 6.87917 6.07746 6.99748 5.86907 7.15542V6.07445C5.86907 3.1192 8.27182 0.714641 11.2253 0.714641C14.1787 0.714641 16.5815 3.1192 16.5815 6.07445V7.15602C16.3713 6.99366 16.1273 6.88076 15.8674 6.82573V6.43177C15.8674 5.84084 15.387 5.35981 14.7961 5.35981H13.7247V6.07445H14.7961C14.9931 6.07445 15.1534 6.2342 15.1534 6.43177V9.29034C15.1534 11.4571 13.3914 13.2209 11.2253 13.2209C9.05913 13.2209 7.29715 11.4571 7.29715 9.29034ZM13.0107 13.577V13.8839C12.9494 14.07 12.5741 15.0081 11.2253 15.0081C9.87707 15.0081 9.50233 14.0748 9.43987 13.8839V13.577C10.0053 13.814 10.6122 13.9361 11.2253 13.9361C11.8383 13.9361 12.4453 13.814 13.0107 13.577ZM5.49914 14.9306L7.1296 14.6429L7.51274 15.0267L5.53096 17.0097L4.03682 15.5143C4.47982 15.2229 4.97727 15.0244 5.49914 14.9306ZM6.52546 18.0048L6.03602 17.5147L8.0178 15.5317L8.50784 16.0218L6.52546 18.0048ZM8.89398 17.4811C8.9538 17.5409 9.00126 17.6118 9.03365 17.69C9.06604 17.7681 9.08272 17.8518 9.08275 17.9364C9.08278 18.021 9.06615 18.1047 9.03381 18.1828C9.00147 18.261 8.95406 18.332 8.89428 18.3918C8.8345 18.4516 8.76353 18.4991 8.68541 18.5315C8.60729 18.5639 8.52355 18.5805 8.43899 18.5806C8.35442 18.5806 8.27067 18.564 8.19253 18.5316C8.11439 18.4993 8.04338 18.4519 7.98357 18.3921L7.56619 17.9747L8.47721 17.0637L8.89398 17.4811ZM1.02452 21.4392L2.49584 17.4427C2.70603 16.8721 3.04894 16.3731 3.47712 15.9647L6.06725 18.5567C5.97402 18.7538 5.94378 18.9748 5.98064 19.1897C6.0175 19.4046 6.11966 19.603 6.27323 19.7577L7.95294 21.4392H1.02452ZM9.51014 20.9906L9.25731 21.2435C9.19243 21.3083 9.10447 21.3448 9.01271 21.345C8.92096 21.3451 8.83291 21.3088 8.76787 21.2441L6.77828 19.2533C6.71345 19.1882 6.67704 19.1001 6.67704 19.0083C6.67704 18.9164 6.71345 18.8283 6.77828 18.7632L7.06174 18.4804L7.47911 18.8978C7.74395 19.1626 8.09166 19.2947 8.43937 19.2947C8.78709 19.2947 9.1348 19.162 9.39904 18.8978C9.6531 18.6425 9.79574 18.297 9.79574 17.9369C9.79574 17.5768 9.6531 17.2313 9.39904 16.976L8.98166 16.5587L9.26512 16.2752C9.33002 16.2101 9.41811 16.1735 9.51001 16.1734C9.60191 16.1733 9.69009 16.2097 9.75516 16.2746L11.7447 18.266C11.7769 18.2981 11.8024 18.3363 11.8198 18.3783C11.8372 18.4202 11.8462 18.4653 11.8462 18.5107C11.8462 18.5562 11.8372 18.6012 11.8198 18.6432C11.8024 18.6852 11.7769 18.7233 11.7447 18.7554L11.4913 19.0089L10.7551 18.3194L10.2668 18.8413L10.9857 19.5139L10.0158 20.485L9.34319 19.7655L8.82132 20.2538L9.51014 20.9906ZM10.0722 21.4392L11.9964 19.5133L12.4858 20.0034L11.0511 21.4392H10.0722ZM12.0618 21.4392L12.9915 20.509L13.9211 21.4392H12.0618ZM12.4546 18.9614C12.5478 18.7643 12.578 18.5433 12.5412 18.3284C12.5043 18.1135 12.4022 17.9151 12.2486 17.7603L10.259 15.7696C10.1046 15.6156 9.90636 15.5132 9.69148 15.4762C9.47659 15.4392 9.25553 15.4695 9.05853 15.563L7.98717 14.491L8.85074 14.3391C9.1336 14.9384 9.85304 15.7221 11.2241 15.7221C12.5951 15.7221 13.3146 14.9384 13.5974 14.3397L16.9502 14.9312C17.6262 15.0521 18.259 15.3475 18.7857 15.7881C19.3125 16.2287 19.7151 16.7992 19.9535 17.4433L21.4248 21.4398H14.9312L12.4546 18.9614Z" fill="#181B19"/>
</svg>
