<svg width="24" height="24" viewBox="0 0 24 24" fill="none" xmlns="http://www.w3.org/2000/svg">
<path fill-rule="evenodd" clip-rule="evenodd" d="M4.85142 1.67442C4.28341 1.67442 3.70332 1.90429 3.11446 2.48315L3.10811 2.48939L3.10163 2.4955C2.59329 2.97439 2.24133 3.49792 2.02096 4.05722L2.01923 4.06164C1.79318 4.62596 1.67676 5.24526 1.67676 5.90512C1.67676 6.93507 1.91448 8.04085 2.41537 9.22922C2.92323 10.4228 3.6272 11.6404 4.51336 12.871C5.41425 14.1064 6.4248 15.2896 7.54584 16.4201C8.67838 17.54 9.86392 18.5498 11.1138 19.4614C12.3421 20.3545 13.5725 21.0582 14.7935 21.5777C15.9948 22.0888 17.1014 22.3256 18.109 22.3256C18.7851 22.3256 19.4017 22.2008 19.9663 21.9658L19.9709 21.9639C20.3697 21.8007 20.74 21.5705 21.0912 21.263C21.2236 21.1469 21.3541 21.0192 21.4826 20.879L21.8347 20.4345C21.9451 20.2712 22.0405 20.1018 22.124 19.9252C22.2621 19.6335 22.3232 19.3423 22.3232 19.066C22.3232 18.8862 22.2874 18.7173 22.2102 18.5211C22.1578 18.4074 22.0676 18.2916 21.8907 18.1692L21.8826 18.1636L18.1897 15.5454C17.9444 15.3793 17.7419 15.2682 17.568 15.1972C17.409 15.1323 17.2931 15.1144 17.2035 15.1144C17.096 15.1144 16.988 15.1403 16.8458 15.2267L16.8221 15.2411L16.7977 15.2538C16.6434 15.3343 16.4434 15.4836 16.1978 15.7287L16.1939 15.7326L15.3459 16.5683C15.0746 16.8381 14.7203 17.0009 14.2972 17.0009C14.1316 17.0009 13.9353 16.9823 13.7234 16.9029L13.7053 16.8962L13.6875 16.8886C13.6367 16.8669 13.5899 16.8453 13.5594 16.8313C13.5232 16.8147 13.5109 16.8094 13.5052 16.8071L13.4637 16.7905L13.4242 16.7696C12.971 16.5301 12.439 16.154 11.8329 15.6419L11.8319 15.641C11.2176 15.1202 10.6203 14.5576 10.0098 13.9594L10.0042 13.9538L9.99862 13.9482C9.4024 13.3413 8.85384 12.7363 8.34229 12.146L8.33619 12.139C7.82952 11.541 7.44148 11.0111 7.20065 10.5702L7.1649 10.5047L7.1414 10.4344C7.1414 10.4344 7.13854 10.4265 7.12401 10.3922C7.12279 10.3893 7.12147 10.3863 7.12009 10.383C7.10615 10.3501 7.08415 10.2983 7.06223 10.24L7.04546 10.1953L7.03388 10.1491C6.99776 10.0049 6.97531 9.85786 6.97531 9.6893C6.97531 9.31064 7.10454 8.9492 7.39293 8.65763L8.24355 7.77466L8.24928 7.76893C8.47958 7.53896 8.63973 7.33044 8.73824 7.15642L8.74491 7.14463L8.75195 7.13307C8.83667 6.99408 8.86446 6.8752 8.86446 6.77581C8.86446 6.70409 8.84368 6.58294 8.77575 6.42468L8.77027 6.41192C8.69942 6.23897 8.58967 6.03962 8.41884 5.80268L8.41543 5.79794L5.81647 2.13984C5.70743 1.98256 5.57163 1.87485 5.40554 1.79829L5.39403 1.79299C5.23495 1.71674 5.04702 1.67442 4.85142 1.67442ZM1.94457 1.2836C2.78513 0.459885 3.76778 0 4.85142 0C5.27975 0 5.71563 0.0908428 6.11392 0.280633C6.52544 0.471393 6.90052 0.763457 7.19213 1.18239L9.78143 4.82679C10.0106 5.145 10.1899 5.45633 10.3197 5.77155C10.4515 6.08048 10.5412 6.42579 10.5412 6.77581C10.5412 7.20767 10.4152 7.62043 10.1913 7.99188C10.0011 8.32503 9.74115 8.64633 9.44085 8.947L8.67094 9.74619C8.67873 9.76457 8.6892 9.78943 8.70051 9.81823C8.86782 10.1111 9.16407 10.5234 9.61329 11.0538C10.1053 11.6215 10.6271 12.1966 11.19 12.7699C11.7846 13.3525 12.3478 13.8818 12.9164 14.3641C13.4541 14.8183 13.8731 15.1078 14.1775 15.2732C14.2021 15.2838 14.2248 15.294 14.2433 15.3024L15.0143 14.5427C15.32 14.2377 15.6477 13.9689 15.9976 13.7823C16.3631 13.5649 16.7617 13.44 17.2035 13.44C17.5388 13.44 17.87 13.5114 18.2029 13.6474C18.5191 13.7767 18.8288 13.9545 19.1393 14.1654L19.1463 14.1702L22.8496 16.7956C23.246 17.0707 23.5567 17.419 23.7502 17.8581L23.7559 17.8712L23.7612 17.8845C23.9036 18.24 24 18.6252 24 19.066C24 19.5935 23.8823 20.1284 23.6403 20.6403C23.517 20.901 23.3726 21.1558 23.2025 21.4035C23.0657 21.6028 22.9132 21.7962 22.7432 21.9836C22.5685 22.1759 22.3864 22.3557 22.1969 22.5217C21.7147 22.9442 21.1879 23.2752 20.609 23.5123C19.8329 23.8349 18.9971 24 18.109 24C16.8362 24 15.5059 23.7009 14.1362 23.1181C12.7864 22.5438 11.4461 21.7743 10.1261 20.8145L10.1249 20.8137C8.80489 19.8509 7.55462 18.7854 6.36301 17.607L6.35725 17.6013C5.17724 16.4114 4.11004 15.1626 3.15642 13.8546L3.15358 13.8508C2.20744 12.5373 1.43653 11.2108 0.871579 9.88264L0.870539 9.88019C0.298675 8.52396 0 7.19666 0 5.90512C0 5.04764 0.151579 4.21654 0.461511 3.44196C0.776753 2.64282 1.27191 1.91893 1.94457 1.2836Z" fill="#709583"/>
</svg>
