<svg width="17" height="23" viewBox="0 0 17 23" fill="none" xmlns="http://www.w3.org/2000/svg">
<path fill-rule="evenodd" clip-rule="evenodd" d="M10.147 7.02895L10.9604 5.03657C11.5191 4.42179 11.7959 3.62346 11.7299 2.81682C11.6639 2.01017 11.2605 1.26114 10.6084 0.734131C10.2856 0.473443 9.91139 0.27522 9.50714 0.150802C9.10288 0.0263837 8.67653 -0.0217871 8.25247 0.00904523C7.82842 0.0398776 7.41499 0.149108 7.03583 0.330487C6.65667 0.511866 6.31922 0.761835 6.04279 1.06609C5.5403 1.6194 5.26419 2.32341 5.26419 3.05133C5.26419 3.77925 5.5403 4.48326 6.04279 5.03657L6.85625 7.02957C2.25306 7.88336 -0.744317 12.0921 0.161422 16.4293C0.540459 18.2492 1.57954 19.8885 3.10091 21.0669C4.62228 22.2453 6.53138 22.8894 8.50161 22.8892C13.1938 22.891 16.9987 19.3077 17 14.8861C17.0013 13.0321 16.3187 11.235 15.0688 9.80202C13.8189 8.369 12.0793 7.38884 10.147 7.02895ZM6.07378 3.05661C6.07413 2.45023 6.33001 1.86874 6.78529 1.43974C7.24057 1.01073 7.85806 0.769244 8.50227 0.768258C8.82135 0.768421 9.13728 0.82774 9.43201 0.942828C9.72674 1.05792 9.99451 1.22652 10.22 1.43901C10.4455 1.65151 10.6244 1.90373 10.7463 2.18127C10.8682 2.45882 10.9309 2.75626 10.9308 3.05661C10.9309 3.35695 10.8682 3.65439 10.7463 3.93194C10.6244 4.20948 10.4455 4.4617 10.22 4.6742C9.99451 4.88669 9.72674 5.05529 9.43201 5.17038C9.13728 5.28547 8.82135 5.34479 8.50227 5.34495C8.18318 5.34479 7.86725 5.28547 7.57252 5.17038C7.27779 5.05529 7.01003 4.88669 6.78452 4.6742C6.55901 4.4617 6.38018 4.20948 6.25823 3.93194C6.13628 3.65439 6.0736 3.35695 6.07378 3.05661ZM10.5253 15.6431C10.3658 15.6432 10.2078 15.6729 10.0605 15.7304C9.91311 15.788 9.77923 15.8723 9.66647 15.9785C9.55372 16.0848 9.4643 16.2109 9.40333 16.3496C9.34235 16.4884 9.31102 16.6371 9.3111 16.7873V17.9315C9.3111 18.1336 9.22582 18.3274 9.07401 18.4703C8.9222 18.6132 8.7163 18.6934 8.50161 18.6934C8.28691 18.6934 8.08102 18.6132 7.92921 18.4703C7.7774 18.3274 7.69211 18.1336 7.69211 17.9315V16.7873C7.69748 16.6341 7.67004 16.4813 7.61143 16.3383C7.55283 16.1952 7.46425 16.0647 7.35097 15.9545C7.23768 15.8443 7.10201 15.7566 6.95202 15.6968C6.80203 15.6369 6.64078 15.6061 6.47787 15.6061C6.31495 15.6061 6.15371 15.6369 6.00371 15.6968C5.85372 15.7566 5.71805 15.8443 5.60477 15.9545C5.49148 16.0647 5.4029 16.1952 5.3443 16.3383C5.28569 16.4813 5.25826 16.6341 5.26362 16.7873V17.9315C5.26362 18.1336 5.17834 18.3274 5.02653 18.4703C4.87472 18.6132 4.66882 18.6934 4.45413 18.6934C4.23943 18.6934 4.03354 18.6132 3.88173 18.4703C3.72992 18.3274 3.64463 18.1336 3.64463 17.9315V12.2106C3.64463 12.0085 3.72992 11.8147 3.88173 11.6718C4.03354 11.5289 4.23943 11.4487 4.45413 11.4487C4.66882 11.4487 4.87472 11.5289 5.02653 11.6718C5.17834 11.8147 5.26362 12.0085 5.26362 12.2106V13.3548C5.26362 13.9864 5.80746 14.499 6.47787 14.499C6.63741 14.4989 6.79537 14.4692 6.94274 14.4117C7.09011 14.3541 7.22399 14.2698 7.33674 14.1636C7.44949 14.0573 7.53891 13.9312 7.59988 13.7925C7.66086 13.6537 7.6922 13.505 7.69211 13.3548V13.057C7.91275 13.2482 8.2017 13.3543 8.50161 13.3543C8.80152 13.3543 9.09046 13.2482 9.3111 13.057V13.3542C9.3111 13.9858 9.85494 14.4983 10.5253 14.4983C10.6849 14.4983 10.8429 14.4686 10.9902 14.4111C11.1376 14.3535 11.2715 14.2692 11.3842 14.163C11.497 14.0567 11.5864 13.9306 11.6474 13.7918C11.7083 13.6531 11.7397 13.5043 11.7396 13.3542V12.21C11.7396 12.0079 11.8249 11.8141 11.9767 11.6712C12.1285 11.5283 12.3344 11.448 12.5491 11.448C12.7638 11.448 12.9697 11.5283 13.1215 11.6712C13.2733 11.8141 13.3586 12.0079 13.3586 12.21V17.9309C13.3586 18.1329 13.2733 18.3268 13.1215 18.4696C12.9697 18.6125 12.7638 18.6928 12.5491 18.6928C12.3344 18.6928 12.1285 18.6125 11.9767 18.4696C11.8249 18.3268 11.7396 18.1329 11.7396 17.9309V16.7867C11.7398 16.6365 11.7085 16.4878 11.6475 16.349C11.5866 16.2102 11.4972 16.0841 11.3844 15.9779C11.2716 15.8717 11.1377 15.7875 10.9903 15.73C10.8429 15.6726 10.6849 15.6431 10.5253 15.6431ZM8.90635 7.94416V12.21C8.90635 12.311 8.86371 12.4079 8.78781 12.4794C8.7119 12.5508 8.60895 12.591 8.50161 12.591C8.39426 12.591 8.29131 12.5508 8.21541 12.4794C8.1395 12.4079 8.09686 12.311 8.09686 12.21V7.94416L7.25045 5.8705C7.64658 6.02716 8.07193 6.10785 8.50161 6.10785C8.93128 6.10785 9.35664 6.02716 9.75277 5.8705L8.90635 7.94416ZM7.15091 22.0192C2.96961 21.3162 0.185153 17.553 0.931366 13.6123C1.20695 12.1539 1.95095 10.8102 3.06305 9.76217C4.17515 8.71416 5.60188 8.01229 7.15091 7.75119V7.75057L7.28802 8.08563V11.2129C7.02965 11.4884 6.88589 11.8425 6.88327 12.21V13.3542C6.88642 13.406 6.87828 13.4579 6.85936 13.5067C6.84045 13.5555 6.81114 13.6002 6.77325 13.6379C6.73536 13.6757 6.68967 13.7058 6.63899 13.7264C6.58831 13.7469 6.53371 13.7575 6.47852 13.7575C6.42334 13.7575 6.36874 13.7469 6.31806 13.7264C6.26738 13.7058 6.22169 13.6757 6.1838 13.6379C6.14591 13.6002 6.1166 13.5555 6.09769 13.5067C6.07877 13.4579 6.07063 13.406 6.07378 13.3542V12.21C6.07378 11.368 5.34866 10.6848 4.45478 10.6848C4.02528 10.6852 3.61349 10.846 3.3099 11.132C3.00632 11.418 2.83579 11.8057 2.83579 12.21V17.9309C2.82961 18.1346 2.86692 18.3375 2.9455 18.5275C3.02408 18.7175 3.14235 18.8907 3.2933 19.0369C3.44425 19.1831 3.62481 19.2993 3.82431 19.3786C4.02382 19.458 4.2382 19.4989 4.45478 19.4989C4.67137 19.4989 4.88575 19.458 5.08526 19.3786C5.28476 19.2993 5.46532 19.1831 5.61627 19.0369C5.76722 18.8907 5.88548 18.7175 5.96407 18.5275C6.04265 18.3375 6.07996 18.1346 6.07378 17.9309V16.7867C6.07063 16.7348 6.07877 16.6829 6.09769 16.6341C6.1166 16.5853 6.14591 16.5407 6.1838 16.5029C6.22169 16.4651 6.26738 16.4351 6.31806 16.4145C6.36874 16.3939 6.42334 16.3833 6.47852 16.3833C6.53371 16.3833 6.58831 16.3939 6.63899 16.4145C6.68967 16.4351 6.73536 16.4651 6.77325 16.5029C6.81114 16.5407 6.84045 16.5853 6.85936 16.6341C6.87828 16.6829 6.88642 16.7348 6.88327 16.7867V17.9309C6.87709 18.1346 6.9144 18.3375 6.99298 18.5275C7.07157 18.7175 7.18983 18.8907 7.34078 19.0369C7.49173 19.1831 7.67229 19.2993 7.87179 19.3786C8.0713 19.458 8.28568 19.4989 8.50227 19.4989C8.71885 19.4989 8.93324 19.458 9.13274 19.3786C9.33224 19.2993 9.5128 19.1831 9.66375 19.0369C9.8147 18.8907 9.93297 18.7175 10.0115 18.5275C10.0901 18.3375 10.1274 18.1346 10.1213 17.9309V16.7867C10.1181 16.7348 10.1262 16.6829 10.1452 16.6341C10.1641 16.5853 10.1934 16.5407 10.2313 16.5029C10.2692 16.4651 10.3149 16.4351 10.3655 16.4145C10.4162 16.3939 10.4708 16.3833 10.526 16.3833C10.5812 16.3833 10.6358 16.3939 10.6865 16.4145C10.7372 16.4351 10.7828 16.4651 10.8207 16.5029C10.8586 16.5407 10.8879 16.5853 10.9068 16.6341C10.9258 16.6829 10.9339 16.7348 10.9308 16.7867V17.9309C10.9246 18.1346 10.9619 18.3375 11.0405 18.5275C11.119 18.7175 11.2373 18.8907 11.3883 19.0369C11.5392 19.1831 11.7198 19.2993 11.9193 19.3786C12.1188 19.458 12.3332 19.4989 12.5497 19.4989C12.7663 19.4989 12.9807 19.458 13.1802 19.3786C13.3797 19.2993 13.5603 19.1831 13.7112 19.0369C13.8622 18.8907 13.9804 18.7175 14.059 18.5275C14.1376 18.3375 14.1749 18.1346 14.1687 17.9309V12.21C14.1749 12.0062 14.1376 11.8033 14.059 11.6134C13.9804 11.4234 13.8622 11.2502 13.7112 11.104C13.5603 10.9578 13.3797 10.8416 13.1802 10.7622C12.9807 10.6829 12.7663 10.642 12.5497 10.642C12.3332 10.642 12.1188 10.6829 11.9193 10.7622C11.7198 10.8416 11.5392 10.9578 11.3883 11.104C11.2373 11.2502 11.119 11.4234 11.0405 11.6134C10.9619 11.8033 10.9246 12.0062 10.9308 12.21V13.3542C10.9339 13.406 10.9258 13.4579 10.9068 13.5067C10.8879 13.5555 10.8586 13.6002 10.8207 13.6379C10.7828 13.6757 10.7372 13.7058 10.6865 13.7264C10.6358 13.7469 10.5812 13.7575 10.526 13.7575C10.4708 13.7575 10.4162 13.7469 10.3655 13.7264C10.3149 13.7058 10.2692 13.6757 10.2313 13.6379C10.1934 13.6002 10.1641 13.5555 10.1452 13.5067C10.1262 13.4579 10.1181 13.406 10.1213 13.3542V12.21C10.118 11.8428 9.97432 11.4891 9.71651 11.2135V8.08625L9.85296 7.75181C14.0343 8.45482 16.8187 12.2187 16.0725 16.1581C15.3263 20.0982 11.3322 22.7222 7.15091 22.0192Z" fill="#181B19"/>
</svg>
