<svg width="20" height="24" viewBox="0 0 20 24" fill="none" xmlns="http://www.w3.org/2000/svg">
<path fill-rule="evenodd" clip-rule="evenodd" d="M10 1.67442C7.32768 1.67442 5.16131 3.54857 5.16131 5.86047C5.16131 8.17236 7.32768 10.0465 10 10.0465C12.6724 10.0465 14.8387 8.17236 14.8387 5.86047C14.8387 3.54857 12.6724 1.67442 10 1.67442ZM3.22583 5.86047C3.22583 2.62381 6.25873 0 10 0C13.7413 0 16.7742 2.62381 16.7742 5.86047C16.7742 9.09712 13.7413 11.7209 10 11.7209C6.25873 11.7209 3.22583 9.09712 3.22583 5.86047Z" fill="#709583"/>
<path fill-rule="evenodd" clip-rule="evenodd" d="M0 19.3357C0 16.055 3.07418 13.3955 6.86636 13.3955H13.1337C16.9258 13.3955 20 16.055 20 19.3357C20 21.9118 17.5861 24.0002 14.6083 24.0002H5.3917C2.41395 24.0002 0 21.9118 0 19.3357ZM6.86636 15.0699C4.14311 15.0699 1.93548 16.9798 1.93548 19.3357C1.93548 20.9871 3.48289 22.3257 5.3917 22.3257H14.6083C16.5172 22.3257 18.0645 20.9871 18.0645 19.3357C18.0645 16.9798 15.8569 15.0699 13.1337 15.0699H6.86636Z" fill="#709583"/>
</svg>
